<?xml version="1.0" encoding="UTF-8"?>
<svg xmlns="http://www.w3.org/2000/svg" xmlns:xlink="http://www.w3.org/1999/xlink" width="257pt" height="72pt" viewBox="0 0 257 72" version="1.1">
<g id="surface1">
<rect x="0" y="0" width="257" height="72" style="fill:rgb(16.499329%,15.299988%,44.699097%);fill-opacity:1;stroke:none;"/>
<path style=" stroke:none;fill-rule:evenodd;fill:rgb(100%,100%,100%);fill-opacity:1;" d="M 20.667969 54.535156 L 42.511719 41.269531 L 30.273438 41.269531 L 20.667969 47.105469 L 20.667969 54.535156 "/>
<path style="fill:none;stroke-width:5;stroke-linecap:butt;stroke-linejoin:miter;stroke:rgb(15.299988%,13.699341%,41.19873%);stroke-opacity:1;stroke-miterlimit:4;" d="M 206.679688 174.648438 L 425.117188 307.304688 L 302.734375 307.304688 L 206.679688 248.945313 Z M 206.679688 174.648438 " transform="matrix(0.1,0,0,-0.1,0,72)"/>
<path style=" stroke:none;fill-rule:evenodd;fill:rgb(100%,100%,100%);fill-opacity:1;" d="M 42.464844 41.269531 L 30.226563 41.269531 L 41.324219 47.996094 L 53.5625 47.996094 L 42.464844 41.269531 "/>
<path style="fill:none;stroke-width:5;stroke-linecap:butt;stroke-linejoin:miter;stroke:rgb(15.299988%,13.699341%,41.19873%);stroke-opacity:1;stroke-miterlimit:4;" d="M 424.648438 307.304688 L 302.265625 307.304688 L 413.242188 240.039063 L 535.625 240.039063 Z M 424.648438 307.304688 " transform="matrix(0.1,0,0,-0.1,0,72)"/>
<path style=" stroke:none;fill-rule:evenodd;fill:rgb(100%,100%,100%);fill-opacity:1;" d="M 75.253906 34.71875 L 63.015625 34.71875 L 41.121094 47.996094 L 53.359375 47.996094 L 75.253906 34.71875 "/>
<path style="fill:none;stroke-width:5;stroke-linecap:butt;stroke-linejoin:miter;stroke:rgb(15.299988%,13.699341%,41.19873%);stroke-opacity:1;stroke-miterlimit:4;" d="M 752.539063 372.8125 L 630.15625 372.8125 L 411.210938 240.039063 L 533.59375 240.039063 Z M 752.539063 372.8125 " transform="matrix(0.1,0,0,-0.1,0,72)"/>
<path style=" stroke:none;fill-rule:evenodd;fill:rgb(100%,100%,100%);fill-opacity:1;" d="M 75.21875 34.808594 L 62.980469 34.808594 L 74.082031 41.535156 L 86.320313 41.535156 L 75.21875 34.808594 "/>
<path style="fill:none;stroke-width:5;stroke-linecap:butt;stroke-linejoin:miter;stroke:rgb(15.299988%,13.699341%,41.19873%);stroke-opacity:1;stroke-miterlimit:4;" d="M 752.1875 371.914063 L 629.804688 371.914063 L 740.820313 304.648438 L 863.203125 304.648438 Z M 752.1875 371.914063 " transform="matrix(0.1,0,0,-0.1,0,72)"/>
<path style=" stroke:none;fill-rule:evenodd;fill:rgb(100%,100%,100%);fill-opacity:1;" d="M 108.808594 20.328125 L 73.957031 41.535156 L 86.195313 41.535156 L 108.808594 27.773438 L 108.808594 20.328125 "/>
<path style="fill:none;stroke-width:5;stroke-linecap:butt;stroke-linejoin:miter;stroke:rgb(15.299988%,13.699341%,41.19873%);stroke-opacity:1;stroke-miterlimit:4;" d="M 1088.085938 516.71875 L 739.570313 304.648438 L 861.953125 304.648438 L 1088.085938 442.265625 Z M 1088.085938 516.71875 " transform="matrix(0.1,0,0,-0.1,0,72)"/>
<path style=" stroke:none;fill-rule:nonzero;fill:rgb(100%,100%,100%);fill-opacity:1;" d="M 126.296875 32.332031 L 127.691406 32.332031 C 128.523438 32.332031 129.152344 32.210938 129.578125 31.96875 C 130.003906 31.722656 130.328125 31.339844 130.554688 30.816406 C 130.777344 30.292969 130.890625 29.640625 130.890625 28.847656 C 130.890625 28.058594 130.785156 27.382813 130.582031 26.8125 C 130.375 26.242188 130.0625 25.824219 129.644531 25.554688 C 129.222656 25.285156 128.5625 25.148438 127.664063 25.148438 L 126.296875 25.148438 Z M 125.113281 33.335938 L 125.113281 24.242188 L 127.625 24.242188 C 128.847656 24.242188 129.742188 24.40625 130.308594 24.738281 C 130.875 25.070313 131.316406 25.578125 131.636719 26.261719 C 131.953125 26.941406 132.113281 27.773438 132.113281 28.753906 C 132.113281 29.671875 131.972656 30.46875 131.683594 31.140625 C 131.394531 31.816406 130.960938 32.347656 130.378906 32.742188 C 129.796875 33.136719 128.933594 33.335938 127.789063 33.335938 L 125.113281 33.335938 "/>
<path style=" stroke:none;fill-rule:nonzero;fill:rgb(100%,100%,100%);fill-opacity:1;" d="M 134.359375 33.335938 L 134.359375 24.242188 L 139.5 24.242188 L 139.5 25.242188 L 135.542969 25.242188 L 135.542969 28.109375 L 139 28.109375 L 139 29.015625 L 135.542969 29.015625 L 135.542969 32.332031 L 139.816406 32.332031 L 139.816406 33.335938 L 134.359375 33.335938 "/>
<path style=" stroke:none;fill-rule:nonzero;fill:rgb(100%,100%,100%);fill-opacity:1;" d="M 141.976563 24.242188 L 143.15625 24.242188 L 143.15625 30.09375 C 143.15625 30.945313 143.238281 31.515625 143.40625 31.808594 C 143.570313 32.097656 143.832031 32.320313 144.183594 32.472656 C 144.535156 32.625 144.929688 32.703125 145.359375 32.703125 C 145.777344 32.703125 146.148438 32.625 146.472656 32.472656 C 146.792969 32.320313 147.03125 32.082031 147.191406 31.75 C 147.351563 31.417969 147.429688 30.726563 147.429688 29.675781 L 147.429688 24.242188 L 148.519531 24.242188 L 148.519531 29.976563 C 148.519531 31.039063 148.394531 31.785156 148.152344 32.214844 C 147.90625 32.644531 147.558594 32.984375 147.097656 33.234375 C 146.636719 33.484375 146.054688 33.609375 145.355469 33.609375 C 144.707031 33.609375 144.113281 33.511719 143.574219 33.3125 C 143.035156 33.113281 142.632813 32.800781 142.367188 32.382813 C 142.105469 31.964844 141.976563 31.25 141.976563 30.246094 L 141.976563 24.242188 "/>
<path style=" stroke:none;fill-rule:nonzero;fill:rgb(100%,100%,100%);fill-opacity:1;" d="M 153.359375 33.335938 L 153.359375 25.148438 L 150.269531 25.148438 L 150.269531 24.242188 L 157.59375 24.242188 L 157.59375 25.148438 L 154.546875 25.148438 L 154.546875 33.335938 L 153.359375 33.335938 "/>
<path style=" stroke:none;fill-rule:nonzero;fill:rgb(100%,100%,100%);fill-opacity:1;" d="M 159.246094 31.296875 L 160.429688 31.296875 L 160.429688 31.355469 C 160.429688 31.859375 160.605469 32.210938 160.964844 32.40625 C 161.316406 32.601563 161.789063 32.703125 162.382813 32.703125 C 162.894531 32.703125 163.328125 32.550781 163.679688 32.25 C 164.027344 31.949219 164.203125 31.550781 164.203125 31.058594 C 164.203125 30.660156 164.054688 30.335938 163.753906 30.082031 C 163.449219 29.832031 162.996094 29.582031 162.382813 29.332031 L 161.90625 29.136719 C 161.265625 28.871094 160.785156 28.609375 160.46875 28.347656 C 160.148438 28.089844 159.910156 27.800781 159.753906 27.484375 C 159.601563 27.167969 159.519531 26.8125 159.519531 26.421875 C 159.519531 25.734375 159.765625 25.15625 160.25 24.679688 C 160.734375 24.207031 161.496094 23.972656 162.527344 23.972656 C 163.476563 23.972656 164.144531 24.148438 164.53125 24.5 C 164.917969 24.851563 165.109375 25.261719 165.109375 25.730469 L 165.109375 25.789063 L 163.929688 25.789063 L 163.929688 25.730469 C 163.929688 25.582031 163.867188 25.433594 163.75 25.289063 C 163.628906 25.144531 163.449219 25.039063 163.214844 24.976563 C 162.976563 24.910156 162.714844 24.878906 162.429688 24.878906 C 161.851563 24.878906 161.417969 25.027344 161.140625 25.316406 C 160.859375 25.605469 160.722656 25.941406 160.722656 26.308594 C 160.722656 26.558594 160.789063 26.796875 160.921875 27.019531 C 161.054688 27.238281 161.234375 27.421875 161.46875 27.566406 C 161.699219 27.710938 162.09375 27.90625 162.640625 28.148438 L 163.195313 28.386719 C 164.085938 28.773438 164.683594 29.179688 164.980469 29.605469 C 165.277344 30.03125 165.429688 30.488281 165.429688 30.980469 C 165.429688 31.4375 165.308594 31.878906 165.0625 32.308594 C 164.820313 32.734375 164.484375 33.058594 164.058594 33.28125 C 163.628906 33.5 163.054688 33.609375 162.339844 33.609375 C 161.660156 33.609375 161.09375 33.53125 160.636719 33.367188 C 160.183594 33.207031 159.835938 32.941406 159.601563 32.570313 C 159.363281 32.199219 159.246094 31.792969 159.246094 31.355469 L 159.246094 31.296875 "/>
<path style=" stroke:none;fill-rule:nonzero;fill:rgb(100%,100%,100%);fill-opacity:1;" d="M 172.992188 31.382813 L 174.085938 31.382813 L 174.085938 31.441406 C 174.085938 31.800781 173.960938 32.164063 173.710938 32.535156 C 173.464844 32.90625 173.128906 33.175781 172.699219 33.351563 C 172.273438 33.523438 171.773438 33.609375 171.199219 33.609375 C 170.046875 33.609375 169.101563 33.207031 168.363281 32.40625 C 167.632813 31.597656 167.265625 30.394531 167.265625 28.789063 C 167.265625 27.195313 167.628906 25.992188 168.359375 25.183594 C 169.089844 24.375 170.039063 23.972656 171.207031 23.972656 C 171.777344 23.972656 172.273438 24.058594 172.699219 24.230469 C 173.128906 24.40625 173.464844 24.679688 173.710938 25.054688 C 173.960938 25.429688 174.085938 25.792969 174.085938 26.140625 L 174.085938 26.199219 L 172.992188 26.199219 L 172.992188 26.140625 C 172.992188 25.917969 172.925781 25.703125 172.785156 25.496094 C 172.644531 25.292969 172.445313 25.140625 172.1875 25.035156 C 171.929688 24.929688 171.613281 24.878906 171.253906 24.878906 C 170.320313 24.878906 169.628906 25.246094 169.171875 25.980469 C 168.714844 26.714844 168.488281 27.652344 168.488281 28.789063 C 168.488281 29.9375 168.71875 30.875 169.175781 31.605469 C 169.632813 32.335938 170.320313 32.703125 171.246094 32.703125 C 171.878906 32.703125 172.328125 32.574219 172.597656 32.3125 C 172.859375 32.050781 172.992188 31.761719 172.992188 31.441406 L 172.992188 31.382813 "/>
<path style=" stroke:none;fill-rule:nonzero;fill:rgb(100%,100%,100%);fill-opacity:1;" d="M 177.421875 33.335938 L 176.234375 33.335938 L 176.234375 24.242188 L 177.421875 24.242188 L 177.421875 28.289063 L 181.597656 28.289063 L 181.597656 24.242188 L 182.78125 24.242188 L 182.78125 33.335938 L 181.597656 33.335938 L 181.597656 29.199219 L 177.421875 29.199219 L 177.421875 33.335938 "/>
<path style=" stroke:none;fill-rule:nonzero;fill:rgb(100%,100%,100%);fill-opacity:1;" d="M 185.351563 33.335938 L 185.351563 24.242188 L 190.488281 24.242188 L 190.488281 25.242188 L 186.53125 25.242188 L 186.53125 28.109375 L 189.988281 28.109375 L 189.988281 29.015625 L 186.53125 29.015625 L 186.53125 32.332031 L 190.804688 32.332031 L 190.804688 33.335938 L 185.351563 33.335938 "/>
<path style=" stroke:none;fill-rule:nonzero;fill:rgb(100%,100%,100%);fill-opacity:1;" d="M 199.121094 32.425781 L 200.792969 32.425781 C 201.582031 32.425781 202.121094 32.28125 202.414063 31.980469 C 202.703125 31.6875 202.851563 31.335938 202.851563 30.933594 C 202.851563 30.605469 202.757813 30.308594 202.566406 30.03125 C 202.382813 29.761719 202.101563 29.535156 201.734375 29.359375 C 201.363281 29.183594 200.785156 29.097656 200.003906 29.097656 L 199.121094 29.097656 Z M 199.121094 28.191406 L 200.261719 28.191406 C 200.847656 28.191406 201.285156 28.113281 201.574219 27.957031 C 201.867188 27.800781 202.101563 27.578125 202.273438 27.285156 C 202.445313 26.992188 202.53125 26.695313 202.53125 26.386719 C 202.53125 26.046875 202.398438 25.753906 202.128906 25.511719 C 201.855469 25.269531 201.363281 25.148438 200.65625 25.148438 L 199.121094 25.148438 Z M 202.027344 28.542969 C 202.746094 28.722656 203.269531 29.019531 203.59375 29.433594 C 203.914063 29.851563 204.074219 30.324219 204.074219 30.84375 C 204.074219 31.28125 203.964844 31.691406 203.738281 32.074219 C 203.519531 32.457031 203.199219 32.761719 202.789063 32.992188 C 202.382813 33.21875 201.671875 33.335938 200.664063 33.335938 L 197.9375 33.335938 L 197.9375 24.242188 L 200.351563 24.242188 C 201.453125 24.242188 202.195313 24.320313 202.570313 24.476563 C 202.949219 24.636719 203.230469 24.867188 203.425781 25.175781 C 203.613281 25.484375 203.710938 25.828125 203.710938 26.199219 C 203.710938 26.617188 203.589844 27.03125 203.347656 27.445313 C 203.105469 27.855469 202.664063 28.222656 202.027344 28.542969 "/>
<path style=" stroke:none;fill-rule:nonzero;fill:rgb(100%,100%,100%);fill-opacity:1;" d="M 209.964844 32.703125 C 210.789063 32.703125 211.4375 32.34375 211.902344 31.632813 C 212.367188 30.917969 212.601563 29.972656 212.601563 28.789063 C 212.601563 27.613281 212.367188 26.667969 211.902344 25.953125 C 211.4375 25.238281 210.789063 24.878906 209.964844 24.878906 C 209.136719 24.878906 208.488281 25.238281 208.023438 25.953125 C 207.558594 26.667969 207.320313 27.613281 207.320313 28.789063 C 207.320313 29.972656 207.558594 30.917969 208.023438 31.632813 C 208.488281 32.34375 209.136719 32.703125 209.964844 32.703125 Z M 209.960938 33.609375 C 208.820313 33.609375 207.894531 33.191406 207.175781 32.355469 C 206.457031 31.519531 206.097656 30.332031 206.097656 28.789063 C 206.097656 27.246094 206.457031 26.054688 207.175781 25.222656 C 207.894531 24.390625 208.820313 23.972656 209.960938 23.972656 C 211.097656 23.972656 212.023438 24.390625 212.746094 25.222656 C 213.46875 26.054688 213.824219 27.246094 213.824219 28.789063 C 213.824219 30.332031 213.46875 31.519531 212.746094 32.355469 C 212.023438 33.191406 211.097656 33.609375 209.960938 33.609375 "/>
<path style=" stroke:none;fill-rule:nonzero;fill:rgb(100%,100%,100%);fill-opacity:1;" d="M 217.257813 28.519531 L 218.410156 28.519531 C 218.902344 28.519531 219.273438 28.445313 219.523438 28.292969 C 219.777344 28.144531 219.976563 27.921875 220.128906 27.636719 C 220.273438 27.347656 220.351563 27.039063 220.351563 26.710938 C 220.351563 26.425781 220.289063 26.167969 220.175781 25.945313 C 220.058594 25.71875 219.886719 25.53125 219.65625 25.378906 C 219.429688 25.226563 219.046875 25.148438 218.503906 25.148438 L 217.257813 25.148438 Z M 217.257813 33.335938 L 216.070313 33.335938 L 216.070313 24.242188 L 218.886719 24.242188 C 219.574219 24.242188 220.097656 24.339844 220.441406 24.539063 C 220.789063 24.738281 221.066406 25.027344 221.269531 25.40625 C 221.472656 25.78125 221.574219 26.191406 221.574219 26.632813 C 221.574219 26.988281 221.507813 27.328125 221.371094 27.65625 C 221.234375 27.980469 221.042969 28.277344 220.796875 28.539063 C 220.550781 28.800781 220.164063 29.039063 219.640625 29.246094 C 219.839844 29.355469 219.984375 29.457031 220.082031 29.554688 C 220.183594 29.652344 220.300781 29.8125 220.441406 30.03125 C 220.582031 30.25 220.707031 30.453125 220.8125 30.644531 L 222.257813 33.335938 L 220.898438 33.335938 L 219.644531 30.945313 C 219.339844 30.367188 218.941406 29.859375 218.449219 29.425781 L 217.257813 29.425781 L 217.257813 33.335938 "/>
<path style=" stroke:none;fill-rule:nonzero;fill:rgb(100%,100%,100%);fill-opacity:1;" d="M 223.960938 31.296875 L 225.144531 31.296875 L 225.144531 31.355469 C 225.144531 31.859375 225.320313 32.210938 225.679688 32.40625 C 226.03125 32.601563 226.507813 32.703125 227.097656 32.703125 C 227.609375 32.703125 228.046875 32.550781 228.394531 32.25 C 228.742188 31.949219 228.917969 31.550781 228.917969 31.058594 C 228.917969 30.660156 228.769531 30.335938 228.46875 30.082031 C 228.167969 29.832031 227.710938 29.582031 227.101563 29.332031 L 226.625 29.136719 C 225.980469 28.871094 225.5 28.609375 225.183594 28.347656 C 224.863281 28.089844 224.628906 27.800781 224.472656 27.484375 C 224.3125 27.167969 224.234375 26.8125 224.234375 26.421875 C 224.234375 25.734375 224.480469 25.15625 224.964844 24.679688 C 225.449219 24.207031 226.210938 23.972656 227.246094 23.972656 C 228.191406 23.972656 228.859375 24.148438 229.246094 24.5 C 229.632813 24.851563 229.824219 25.261719 229.824219 25.730469 L 229.824219 25.789063 L 228.644531 25.789063 L 228.644531 25.730469 C 228.644531 25.582031 228.585938 25.433594 228.464844 25.289063 C 228.347656 25.144531 228.167969 25.039063 227.929688 24.976563 C 227.691406 24.910156 227.429688 24.878906 227.144531 24.878906 C 226.5625 24.878906 226.136719 25.027344 225.855469 25.316406 C 225.578125 25.605469 225.4375 25.941406 225.4375 26.308594 C 225.4375 26.558594 225.503906 26.796875 225.636719 27.019531 C 225.769531 27.238281 225.953125 27.421875 226.183594 27.566406 C 226.414063 27.710938 226.808594 27.90625 227.355469 28.148438 L 227.914063 28.386719 C 228.804688 28.773438 229.398438 29.179688 229.699219 29.605469 C 229.992188 30.03125 230.144531 30.488281 230.144531 30.980469 C 230.144531 31.4375 230.019531 31.878906 229.777344 32.308594 C 229.535156 32.734375 229.199219 33.058594 228.769531 33.28125 C 228.34375 33.5 227.769531 33.609375 227.054688 33.609375 C 226.375 33.609375 225.808594 33.53125 225.351563 33.367188 C 224.898438 33.207031 224.554688 32.941406 224.316406 32.570313 C 224.078125 32.199219 223.960938 31.792969 223.960938 31.355469 L 223.960938 31.296875 "/>
<path style=" stroke:none;fill-rule:nonzero;fill:rgb(100%,100%,100%);fill-opacity:1;" d="M 232.296875 33.335938 L 232.296875 24.242188 L 237.433594 24.242188 L 237.433594 25.242188 L 233.476563 25.242188 L 233.476563 28.109375 L 236.933594 28.109375 L 236.933594 29.015625 L 233.476563 29.015625 L 233.476563 32.332031 L 237.75 32.332031 L 237.75 33.335938 L 232.296875 33.335938 "/>
<path style=" stroke:none;fill-rule:nonzero;fill:rgb(100%,100%,100%);fill-opacity:1;" d="M 131.617188 47.320313 C 130.652344 47.78125 129.730469 48.011719 128.855469 48.011719 C 127.945313 48.011719 127.210938 47.832031 126.648438 47.46875 C 126.085938 47.105469 125.636719 46.585938 125.300781 45.90625 C 124.964844 45.226563 124.796875 44.355469 124.796875 43.292969 C 124.796875 42.09375 124.953125 41.160156 125.273438 40.496094 C 125.59375 39.835938 126.039063 39.316406 126.617188 38.9375 C 127.195313 38.558594 127.882813 38.371094 128.675781 38.371094 C 129.21875 38.371094 129.710938 38.457031 130.15625 38.628906 C 130.601563 38.800781 130.957031 39.0625 131.222656 39.410156 C 131.484375 39.761719 131.617188 40.105469 131.617188 40.453125 L 131.617188 40.511719 L 130.527344 40.511719 L 130.527344 40.453125 C 130.527344 40.238281 130.445313 40.042969 130.28125 39.863281 C 130.121094 39.679688 129.90625 39.539063 129.644531 39.433594 C 129.378906 39.332031 129.078125 39.28125 128.742188 39.28125 C 127.859375 39.28125 127.183594 39.625 126.71875 40.316406 C 126.253906 41.007813 126.019531 41.960938 126.019531 43.175781 C 126.019531 44.386719 126.261719 45.34375 126.734375 46.046875 C 127.214844 46.75 127.886719 47.101563 128.753906 47.101563 C 129.265625 47.101563 129.851563 46.980469 130.527344 46.738281 L 130.527344 44.144531 L 128.476563 44.144531 L 128.476563 43.234375 L 131.617188 43.234375 L 131.617188 47.320313 "/>
<path style=" stroke:none;fill-rule:nonzero;fill:rgb(100%,100%,100%);fill-opacity:1;" d="M 135.226563 42.917969 L 136.382813 42.917969 C 136.871094 42.917969 137.242188 42.84375 137.496094 42.691406 C 137.75 42.542969 137.949219 42.324219 138.097656 42.035156 C 138.246094 41.746094 138.320313 41.441406 138.320313 41.109375 C 138.320313 40.824219 138.261719 40.570313 138.144531 40.34375 C 138.027344 40.117188 137.855469 39.929688 137.628906 39.777344 C 137.402344 39.625 137.015625 39.546875 136.472656 39.546875 L 135.226563 39.546875 Z M 135.226563 47.734375 L 134.042969 47.734375 L 134.042969 38.640625 L 136.855469 38.640625 C 137.546875 38.640625 138.066406 38.738281 138.414063 38.941406 C 138.761719 39.140625 139.039063 39.425781 139.242188 39.804688 C 139.445313 40.179688 139.546875 40.589844 139.546875 41.03125 C 139.546875 41.386719 139.476563 41.726563 139.34375 42.054688 C 139.203125 42.382813 139.015625 42.675781 138.769531 42.941406 C 138.519531 43.203125 138.136719 43.4375 137.613281 43.644531 C 137.808594 43.753906 137.953125 43.855469 138.054688 43.957031 C 138.152344 44.050781 138.269531 44.210938 138.410156 44.429688 C 138.554688 44.648438 138.679688 44.851563 138.78125 45.042969 L 140.226563 47.734375 L 138.871094 47.734375 L 137.617188 45.34375 C 137.3125 44.765625 136.914063 44.261719 136.421875 43.828125 L 135.226563 43.828125 L 135.226563 47.734375 "/>
<path style=" stroke:none;fill-rule:nonzero;fill:rgb(100%,100%,100%);fill-opacity:1;" d="M 145.703125 47.101563 C 146.53125 47.101563 147.179688 46.746094 147.644531 46.03125 C 148.109375 45.320313 148.34375 44.371094 148.34375 43.191406 C 148.34375 42.015625 148.109375 41.070313 147.644531 40.351563 C 147.179688 39.636719 146.53125 39.28125 145.703125 39.28125 C 144.878906 39.28125 144.230469 39.636719 143.765625 40.351563 C 143.296875 41.070313 143.0625 42.015625 143.0625 43.191406 C 143.0625 44.371094 143.296875 45.320313 143.765625 46.03125 C 144.230469 46.746094 144.878906 47.101563 145.703125 47.101563 Z M 145.699219 48.011719 C 144.5625 48.011719 143.636719 47.59375 142.917969 46.757813 C 142.199219 45.917969 141.839844 44.730469 141.839844 43.1875 C 141.839844 41.644531 142.199219 40.457031 142.917969 39.621094 C 143.636719 38.789063 144.5625 38.371094 145.699219 38.371094 C 146.839844 38.371094 147.765625 38.789063 148.484375 39.621094 C 149.207031 40.457031 149.566406 41.644531 149.566406 43.1875 C 149.566406 44.730469 149.207031 45.917969 148.484375 46.757813 C 147.765625 47.59375 146.839844 48.011719 145.699219 48.011719 "/>
<path style=" stroke:none;fill-rule:nonzero;fill:rgb(100%,100%,100%);fill-opacity:1;" d="M 151.679688 38.640625 L 152.863281 38.640625 L 152.863281 44.492188 C 152.863281 45.34375 152.945313 45.914063 153.109375 46.207031 C 153.277344 46.5 153.535156 46.71875 153.890625 46.871094 C 154.238281 47.027344 154.632813 47.101563 155.066406 47.101563 C 155.484375 47.101563 155.851563 47.027344 156.175781 46.871094 C 156.496094 46.71875 156.738281 46.480469 156.894531 46.148438 C 157.054688 45.820313 157.136719 45.128906 157.136719 44.078125 L 157.136719 38.640625 L 158.226563 38.640625 L 158.226563 44.378906 C 158.226563 45.441406 158.101563 46.183594 157.855469 46.613281 C 157.613281 47.042969 157.261719 47.386719 156.800781 47.636719 C 156.339844 47.886719 155.761719 48.011719 155.058594 48.011719 C 154.410156 48.011719 153.816406 47.910156 153.277344 47.710938 C 152.738281 47.511719 152.339844 47.203125 152.074219 46.78125 C 151.808594 46.363281 151.679688 45.652344 151.679688 44.648438 L 151.679688 38.640625 "/>
<path style=" stroke:none;fill-rule:nonzero;fill:rgb(100%,100%,100%);fill-opacity:1;" d="M 161.835938 43.234375 L 162.632813 43.234375 C 163.679688 43.234375 164.367188 43.03125 164.699219 42.632813 C 165.03125 42.226563 165.199219 41.742188 165.199219 41.179688 C 165.199219 40.691406 165.0625 40.296875 164.796875 39.996094 C 164.527344 39.699219 164 39.546875 163.207031 39.546875 L 161.835938 39.546875 Z M 161.835938 47.734375 L 160.652344 47.734375 L 160.652344 38.640625 L 163.183594 38.640625 C 164.148438 38.640625 164.828125 38.738281 165.226563 38.9375 C 165.621094 39.136719 165.921875 39.421875 166.121094 39.804688 C 166.320313 40.183594 166.425781 40.628906 166.425781 41.132813 C 166.425781 41.980469 166.132813 42.699219 165.554688 43.277344 C 164.972656 43.851563 164.109375 44.144531 162.960938 44.144531 L 161.835938 44.144531 L 161.835938 47.734375 "/>
<path style="fill:none;stroke-width:5;stroke-linecap:butt;stroke-linejoin:miter;stroke:rgb(100%,100%,100%);stroke-opacity:1;stroke-miterlimit:4;" d="M 2082.5 494.140625 L 2115 494.140625 " transform="matrix(0.1,0,0,-0.1,0,72)"/>
<path style="fill:none;stroke-width:10;stroke-linecap:butt;stroke-linejoin:miter;stroke:rgb(100%,100%,100%);stroke-opacity:1;stroke-miterlimit:4;" d="M 1173.320313 550 L 1173.320313 156.640625 " transform="matrix(0.1,0,0,-0.1,0,72)"/>
</g>
</svg>
